<?xml version="1.0" encoding="UTF-8"?><svg xmlns="http://www.w3.org/2000/svg" xmlns:xlink="http://www.w3.org/1999/xlink" fill-opacity="1" color-rendering="auto" color-interpolation="auto" text-rendering="auto" stroke="black" stroke-linecap="square" width="783" stroke-miterlimit="10" shape-rendering="auto" stroke-opacity="1" fill="black" stroke-dasharray="none" font-weight="normal" stroke-width="1" height="450" font-family="'Dialog'" font-style="normal" stroke-linejoin="miter" font-size="12px" stroke-dashoffset="0" image-rendering="auto">
  <!--Generated by ySVG 2.6-->
  <defs id="genericDefs"/>
  <g>
    <defs id="defs1">
      <clipPath clipPathUnits="userSpaceOnUse" id="clipPath1">
        <path d="M0 0 L783 0 L783 450 L0 450 L0 0 Z"/>
      </clipPath>
      <clipPath clipPathUnits="userSpaceOnUse" id="clipPath2">
        <path d="M214 81 L997 81 L997 531 L214 531 L214 81 Z"/>
      </clipPath>
    </defs>
    <g fill="white" text-rendering="geometricPrecision" shape-rendering="geometricPrecision" transform="translate(-214,-81)" stroke="white">
      <rect x="214" width="783" height="450" y="81" clip-path="url(#clipPath2)" stroke="none"/>
    </g>
    <g text-rendering="geometricPrecision" stroke-miterlimit="1.45" shape-rendering="geometricPrecision" transform="matrix(1,0,0,1,-214,-81)" stroke-linecap="butt">
      <rect x="240" y="94" clip-path="url(#clipPath2)" fill="none" width="200" rx="20" ry="20" height="40"/>
      <text x="318.6104" xml:space="preserve" y="118.5352" clip-path="url(#clipPath2)" font-family="sans-serif" stroke="none">Начало</text>
    </g>
    <g text-rendering="geometricPrecision" stroke-miterlimit="1.45" shape-rendering="geometricPrecision" transform="matrix(1,0,0,1,-214,-81)" stroke-linecap="butt">
      <path fill="none" d="M240 164 L440 164 L440 204 L240 204 Z" clip-path="url(#clipPath2)"/>
      <text x="263.4531" xml:space="preserve" y="174.4023" clip-path="url(#clipPath2)" font-family="sans-serif" stroke="none">Создать массив T из трёх</text>
      <text x="266.9131" xml:space="preserve" y="188.5352" clip-path="url(#clipPath2)" font-family="sans-serif" stroke="none">действительных чисел и</text>
      <text x="251.1895" xml:space="preserve" y="202.668" clip-path="url(#clipPath2)" font-family="sans-serif" stroke="none">заполнить его значениями -1</text>
    </g>
    <g text-rendering="geometricPrecision" stroke-miterlimit="1.45" shape-rendering="geometricPrecision" transform="matrix(1,0,0,1,-214,-81)" stroke-linecap="butt">
      <path fill="none" d="M340 234 L440 264 L340 294 L240 264 Z" clip-path="url(#clipPath2)"/>
      <text x="321.4756" xml:space="preserve" y="268.5352" clip-path="url(#clipPath2)" font-family="sans-serif" stroke="none">i &gt; 0 ?</text>
    </g>
    <g text-rendering="geometricPrecision" stroke-miterlimit="1.45" shape-rendering="geometricPrecision" transform="matrix(1,0,0,1,-214,-81)" stroke-linecap="butt">
      <path fill="none" d="M233.4422 324 L446.5578 324 L446.5578 370.8701 L233.4422 370.8701 Z" clip-path="url(#clipPath2)"/>
      <text x="240.833" xml:space="preserve" y="337.8374" clip-path="url(#clipPath2)" font-family="sans-serif" stroke="none">Вычислить возможное значение t</text>
      <text x="236.1016" xml:space="preserve" y="351.9702" clip-path="url(#clipPath2)" font-family="sans-serif" stroke="none">по формулам (13.1) или (13.2) для</text>
      <text x="233.4648" xml:space="preserve" y="366.103" clip-path="url(#clipPath2)" font-family="sans-serif" stroke="none">поверхности i-1 и сохранить в T[0]</text>
    </g>
    <g text-rendering="geometricPrecision" stroke-miterlimit="1.45" shape-rendering="geometricPrecision" transform="matrix(1,0,0,1,-214,-81)" stroke-linecap="butt">
      <path fill="none" d="M508.5564 84 L498.5564 84 L498.5564 144 L508.5564 144" clip-path="url(#clipPath2)"/>
      <text x="509.173" xml:space="preserve" y="97.3359" clip-path="url(#clipPath2)" font-family="sans-serif" stroke="none">Вход: параметры системы;</text>
      <text x="509.173" xml:space="preserve" y="111.4688" clip-path="url(#clipPath2)" font-family="sans-serif" stroke="none">i — индекс текущей поверхности;</text>
      <text x="509.173" xml:space="preserve" y="125.6016" clip-path="url(#clipPath2)" font-family="sans-serif" stroke="none">N — количество поверхностей</text>
      <text x="509.173" xml:space="preserve" y="139.7344" clip-path="url(#clipPath2)" font-family="sans-serif" stroke="none">разбиения текущей среды</text>
    </g>
    <g text-rendering="geometricPrecision" stroke-miterlimit="1.45" shape-rendering="geometricPrecision" transform="matrix(1,0,0,1,-214,-81)" stroke-linecap="butt">
      <rect x="498.5564" y="477.7402" clip-path="url(#clipPath2)" fill="none" width="200" rx="20" ry="20" height="40"/>
      <text x="580.0027" xml:space="preserve" y="502.2753" clip-path="url(#clipPath2)" font-family="sans-serif" stroke="none">Конец</text>
    </g>
    <g text-rendering="geometricPrecision" stroke-miterlimit="1.45" shape-rendering="geometricPrecision" transform="matrix(1,0,0,1,-214,-81)" stroke-linecap="butt">
      <path fill="none" d="M767.1128 467.7402 L757.1128 467.7402 L757.1128 527.7402 L767.1128 527.7402" clip-path="url(#clipPath2)"/>
      <text x="763.1128" xml:space="preserve" y="481.0761" clip-path="url(#clipPath2)" font-family="sans-serif" stroke="none">Выход:</text>
      <text x="763.1128" xml:space="preserve" y="495.2089" clip-path="url(#clipPath2)" font-family="sans-serif" stroke="none">T — массив параметров удалённости</text>
      <text x="763.1128" xml:space="preserve" y="509.3417" clip-path="url(#clipPath2)" font-family="sans-serif" stroke="none">фотона до соседних поверхностей;</text>
      <text x="763.1128" xml:space="preserve" y="523.4745" clip-path="url(#clipPath2)" font-family="sans-serif" stroke="none">j — индекс наименьшего значения в T</text>
    </g>
    <g text-rendering="geometricPrecision" stroke-miterlimit="1.45" shape-rendering="geometricPrecision" transform="matrix(1,0,0,1,-214,-81)" stroke-linecap="butt">
      <path fill="none" d="M598.5564 234 L698.5564 264 L598.5564 294 L498.5564 264 Z" clip-path="url(#clipPath2)"/>
      <text x="568.3308" xml:space="preserve" y="268.5352" clip-path="url(#clipPath2)" font-family="sans-serif" stroke="none">i &lt; N - 1 ?</text>
    </g>
    <g text-rendering="geometricPrecision" stroke-miterlimit="1.45" shape-rendering="geometricPrecision" transform="matrix(1,0,0,1,-214,-81)" stroke-linecap="butt">
      <path fill="none" d="M491.9986 324 L705.1142 324 L705.1142 370.8701 L491.9986 370.8701 Z" clip-path="url(#clipPath2)"/>
      <text x="499.3894" xml:space="preserve" y="337.8374" clip-path="url(#clipPath2)" font-family="sans-serif" stroke="none">Вычислить возможное значение t</text>
      <text x="494.658" xml:space="preserve" y="351.9702" clip-path="url(#clipPath2)" font-family="sans-serif" stroke="none">по формулам (13.1) или (13.2) для</text>
      <text x="490.7234" xml:space="preserve" y="366.103" clip-path="url(#clipPath2)" font-family="sans-serif" stroke="none">поверхности i+1 и сохранить в T[2]</text>
    </g>
    <g text-rendering="geometricPrecision" stroke-miterlimit="1.45" shape-rendering="geometricPrecision" transform="matrix(1,0,0,1,-214,-81)" stroke-linecap="butt">
      <path fill="none" d="M491.9986 400.8701 L705.1142 400.8701 L705.1142 447.7402 L491.9986 447.7402 Z" clip-path="url(#clipPath2)"/>
      <text x="511.1521" xml:space="preserve" y="414.7075" clip-path="url(#clipPath2)" font-family="sans-serif" stroke="none">Найти индекс j наименьшего</text>
      <text x="502.7175" xml:space="preserve" y="428.8403" clip-path="url(#clipPath2)" font-family="sans-serif" stroke="none">положительного коэффициента</text>
      <text x="563.7488" xml:space="preserve" y="442.9731" clip-path="url(#clipPath2)" font-family="sans-serif" stroke="none">в массиве T</text>
    </g>
    <g text-rendering="geometricPrecision" stroke-miterlimit="1.45" shape-rendering="geometricPrecision" font-family="sans-serif" transform="matrix(1,0,0,1,-214,-81)" stroke-linecap="butt">
      <text x="594.4167" xml:space="preserve" y="188.5352" clip-path="url(#clipPath2)" stroke="none">А</text>
    </g>
    <g text-rendering="geometricPrecision" stroke-miterlimit="1.45" shape-rendering="geometricPrecision" transform="matrix(1,0,0,1,-214,-81)" stroke-linecap="butt">
      <circle fill="none" r="20" clip-path="url(#clipPath2)" cx="598.5564" cy="184"/>
    </g>
    <g text-rendering="geometricPrecision" stroke-miterlimit="1.45" shape-rendering="geometricPrecision" transform="matrix(1,0,0,1,-214,-81)" stroke-linecap="butt">
      <path fill="none" d="M233.4422 404.3051 L446.5578 404.3051 L446.5578 451.1752 L233.4422 451.1752 Z" clip-path="url(#clipPath2)"/>
      <text x="240.833" xml:space="preserve" y="418.1425" clip-path="url(#clipPath2)" font-family="sans-serif" stroke="none">Вычислить возможное значение t</text>
      <text x="236.1016" xml:space="preserve" y="432.2753" clip-path="url(#clipPath2)" font-family="sans-serif" stroke="none">по формулам (13.1) или (13.2) для</text>
      <text x="240.7305" xml:space="preserve" y="446.4081" clip-path="url(#clipPath2)" font-family="sans-serif" stroke="none">поверхности i и сохранить в T[1]</text>
    </g>
    <g text-rendering="geometricPrecision" stroke-miterlimit="1.45" shape-rendering="geometricPrecision" transform="matrix(1,0,0,1,-214,-81)" stroke-linecap="butt">
      <rect fill="none" x="233.4422" width="213.1156" height="46.8701" y="404.3051" clip-path="url(#clipPath2)"/>
      <text x="335.8604" xml:space="preserve" y="505.7104" clip-path="url(#clipPath2)" font-family="sans-serif" stroke="none">А</text>
      <circle fill="none" r="20" clip-path="url(#clipPath2)" cx="340" cy="501.1752"/>
      <path fill="none" d="M340 133.9951 L340 164.0273" clip-path="url(#clipPath2)"/>
      <path fill="none" d="M340 203.9609 L340 234.0098" clip-path="url(#clipPath2)"/>
      <path fill="none" d="M340 294.0252 L340 323.99" clip-path="url(#clipPath2)"/>
      <text x="344.588" xml:space="preserve" y="302.5994" clip-path="url(#clipPath2)" font-family="sans-serif" stroke="none">Да</text>
      <path fill="none" stroke-dasharray="6,2" d="M440.0053 114 L498.5681 114" clip-path="url(#clipPath2)"/>
      <path fill="none" stroke-dasharray="6,2" d="M698.5617 497.7402 L757.1245 497.7402" clip-path="url(#clipPath2)"/>
      <path fill="none" d="M598.5564 294.0252 L598.5564 323.99" clip-path="url(#clipPath2)"/>
      <text x="601.1183" xml:space="preserve" y="306.4169" clip-path="url(#clipPath2)" font-family="sans-serif" stroke="none">Да</text>
      <path fill="none" d="M498.5833 264 L472.0535 264 L472.0535 384.6055 L598.5564 384.6055 L598.5564 392.8498" clip-path="url(#clipPath2)"/>
      <path d="M598.5564 400.8498 L603.5564 388.8498 L598.5564 391.8498 L593.5564 388.8498 Z" clip-path="url(#clipPath2)" stroke="none"/>
      <path fill="none" d="M598.5564 370.8939 L598.5564 400.8595" clip-path="url(#clipPath2)"/>
      <path fill="none" d="M598.5564 447.7197 L598.5564 477.7613" clip-path="url(#clipPath2)"/>
      <path fill="none" d="M598.5564 204 L598.5564 234.0293" clip-path="url(#clipPath2)"/>
      <path fill="none" d="M240.004 264 L216.891 264 L216.891 384.9512 L340 384.9512 L340 396.3051" clip-path="url(#clipPath2)"/>
      <path d="M340 404.3051 L345 392.3051 L340 395.3051 L335 392.3051 Z" clip-path="url(#clipPath2)" stroke="none"/>
      <path fill="none" d="M340 370.8443 L340 404.3051" clip-path="url(#clipPath2)"/>
      <path fill="none" d="M340 451.1752 L340 481.1752" clip-path="url(#clipPath2)"/>
    </g>
  </g>
</svg>
