<?xml version="1.0" encoding="UTF-8"?><svg xmlns="http://www.w3.org/2000/svg" xmlns:xlink="http://www.w3.org/1999/xlink" fill-opacity="1" color-rendering="auto" color-interpolation="auto" text-rendering="auto" stroke="black" stroke-linecap="square" width="682" stroke-miterlimit="10" shape-rendering="auto" stroke-opacity="1" fill="black" stroke-dasharray="none" font-weight="normal" stroke-width="1" height="564" font-family="'Dialog'" font-style="normal" stroke-linejoin="miter" font-size="12px" stroke-dashoffset="0" image-rendering="auto">
  <!--Generated by ySVG 2.6-->
  <defs id="genericDefs"/>
  <g>
    <defs id="defs1">
      <linearGradient x1="522.6229" gradientUnits="userSpaceOnUse" x2="602.6229" y1="220.3585" y2="260.3585" id="linearGradient1" spreadMethod="reflect">
        <stop stop-opacity="1" stop-color="white" offset="0%"/>
        <stop stop-opacity="1" stop-color="white" offset="100%"/>
      </linearGradient>
      <linearGradient x1="98.8393" gradientUnits="userSpaceOnUse" x2="178.8393" y1="216.5417" y2="256.5417" id="linearGradient2" spreadMethod="reflect">
        <stop stop-opacity="1" stop-color="white" offset="0%"/>
        <stop stop-opacity="1" stop-color="white" offset="100%"/>
      </linearGradient>
      <linearGradient x1="84.7926" gradientUnits="userSpaceOnUse" x2="164.7926" y1="555.647" y2="595.647" id="linearGradient3" spreadMethod="reflect">
        <stop stop-opacity="1" stop-color="white" offset="0%"/>
        <stop stop-opacity="1" stop-color="white" offset="100%"/>
      </linearGradient>
      <linearGradient x1="530.5186" gradientUnits="userSpaceOnUse" x2="610.5186" y1="555.647" y2="595.647" id="linearGradient4" spreadMethod="reflect">
        <stop stop-opacity="1" stop-color="white" offset="0%"/>
        <stop stop-opacity="1" stop-color="white" offset="100%"/>
      </linearGradient>
      <clipPath clipPathUnits="userSpaceOnUse" id="clipPath1">
        <path d="M0 0 L682 0 L682 564 L0 564 L0 0 Z"/>
      </clipPath>
      <clipPath clipPathUnits="userSpaceOnUse" id="clipPath2">
        <path d="M-30 92 L652 92 L652 656 L-30 656 L-30 92 Z"/>
      </clipPath>
    </defs>
    <g fill="white" text-rendering="geometricPrecision" shape-rendering="geometricPrecision" transform="translate(30,-92)" stroke="white">
      <rect x="-30" width="682" height="564" y="92" clip-path="url(#clipPath2)" stroke="none"/>
    </g>
    <g text-rendering="geometricPrecision" stroke-miterlimit="1.45" shape-rendering="geometricPrecision" transform="matrix(1,0,0,1,30,-92)" stroke-linecap="butt">
      <rect x="248" y="106.7374" clip-path="url(#clipPath2)" fill="none" width="200" rx="20" ry="20" height="40"/>
      <text x="326.6104" xml:space="preserve" y="131.2726" clip-path="url(#clipPath2)" font-family="sans-serif" stroke="none">Начало</text>
    </g>
    <g text-rendering="geometricPrecision" stroke-miterlimit="1.45" shape-rendering="geometricPrecision" transform="matrix(1,0,0,1,30,-92)" stroke-linecap="butt">
      <path fill="none" d="M124.3932 290.3585 L304.3932 290.3585 L314.3932 300.3585 L314.3932 330.3585 L114.3932 330.3585 L114.3932 300.3585 Z" clip-path="url(#clipPath2)"/>
      <text x="152.8874" xml:space="preserve" y="300.7609" clip-path="url(#clipPath2)" font-family="sans-serif" stroke="none">Цикл 1, пока список</text>
      <text x="121.0944" xml:space="preserve" y="314.8937" clip-path="url(#clipPath2)" font-family="sans-serif" stroke="none">запланированных трассировок</text>
      <text x="118.1295" xml:space="preserve" y="329.0265" clip-path="url(#clipPath2)" font-family="sans-serif" stroke="none">не пуст и есть свободный поток</text>
    </g>
    <g text-rendering="geometricPrecision" stroke-miterlimit="1.45" shape-rendering="geometricPrecision" transform="matrix(1,0,0,1,30,-92)" stroke-linecap="butt">
      <path fill="none" d="M114.3932 430.3585 L314.3932 430.3585 L314.3932 460.3585 L304.3932 470.3585 L124.3932 470.3585 L114.3932 460.3585 Z" clip-path="url(#clipPath2)"/>
      <text x="193.4342" xml:space="preserve" y="454.8937" clip-path="url(#clipPath2)" font-family="sans-serif" stroke="none">Цикл 1</text>
    </g>
    <g text-rendering="geometricPrecision" stroke-miterlimit="1.45" shape-rendering="geometricPrecision" transform="matrix(1,0,0,1,30,-92)" stroke-linecap="butt">
      <path fill="none" d="M114.3932 360.3585 L314.3932 360.3585 L314.3932 400.3585 L114.3932 400.3585 Z" clip-path="url(#clipPath2)"/>
      <text x="130.9704" xml:space="preserve" y="377.8273" clip-path="url(#clipPath2)" font-family="sans-serif" stroke="none">Запустить трассировку луча</text>
      <text x="153.6344" xml:space="preserve" y="391.9601" clip-path="url(#clipPath2)" font-family="sans-serif" stroke="none">в свободном потоке</text>
    </g>
    <g text-rendering="geometricPrecision" stroke-miterlimit="1.45" shape-rendering="geometricPrecision" transform="matrix(1,0,0,1,30,-92)" stroke-linecap="butt">
      <path fill="none" d="M392.6228 290.3585 L592.6229 290.3585 L592.6229 330.3585 L392.6228 330.3585 Z" clip-path="url(#clipPath2)"/>
      <text x="423.5232" xml:space="preserve" y="300.7609" clip-path="url(#clipPath2)" font-family="sans-serif" stroke="none">Ожидание выполнения</text>
      <text x="431.533" xml:space="preserve" y="314.8937" clip-path="url(#clipPath2)" font-family="sans-serif" stroke="none">какого-либо потока</text>
      <text x="439.8328" xml:space="preserve" y="329.0265" clip-path="url(#clipPath2)" font-family="sans-serif" stroke="none">трассировки луча</text>
    </g>
    <g text-rendering="geometricPrecision" stroke-miterlimit="1.45" shape-rendering="geometricPrecision" transform="matrix(1,0,0,1,30,-92)" stroke-linecap="butt">
      <path fill="none" d="M392.6228 360.3585 L592.6229 360.3585 L592.6229 400.3585 L392.6228 400.3585 Z" clip-path="url(#clipPath2)"/>
      <text x="409.3084" xml:space="preserve" y="370.7609" clip-path="url(#clipPath2)" font-family="sans-serif" stroke="none">Сохранение преломлённых</text>
      <text x="447.9773" xml:space="preserve" y="384.8937" clip-path="url(#clipPath2)" font-family="sans-serif" stroke="none">лучей в список</text>
      <text x="399.324" xml:space="preserve" y="399.0265" clip-path="url(#clipPath2)" font-family="sans-serif" stroke="none">запланированных трассировок</text>
    </g>
    <g text-rendering="geometricPrecision" stroke-miterlimit="1.45" shape-rendering="geometricPrecision" transform="matrix(1,0,0,1,30,-92)" stroke-linecap="butt">
      <path fill="none" d="M392.6228 430.3585 L592.6229 430.3585 L592.6229 470.3585 L392.6228 470.3585 Z" clip-path="url(#clipPath2)"/>
      <text x="408.2215" xml:space="preserve" y="447.8273" clip-path="url(#clipPath2)" font-family="sans-serif" stroke="none">Сохранение распределения</text>
      <text x="404.7527" xml:space="preserve" y="461.9601" clip-path="url(#clipPath2)" font-family="sans-serif" stroke="none">поглощённой интенсивности</text>
    </g>
    <g text-rendering="geometricPrecision" stroke-miterlimit="1.45" shape-rendering="geometricPrecision" transform="matrix(1,0,0,1,30,-92)" stroke-linecap="butt">
      <path fill="none" d="M492.6228 490.3585 L602.6229 520.3585 L492.6228 550.3585 L382.6228 520.3585 Z" clip-path="url(#clipPath2)"/>
      <text x="454.698" xml:space="preserve" y="510.7609" clip-path="url(#clipPath2)" font-family="sans-serif" stroke="none">Есть занятые</text>
      <text x="403.1238" xml:space="preserve" y="524.8937" clip-path="url(#clipPath2)" font-family="sans-serif" stroke="none">потоки или запланированные</text>
      <text x="452.3894" xml:space="preserve" y="539.0265" clip-path="url(#clipPath2)" font-family="sans-serif" stroke="none">трассировки?</text>
    </g>
    <g text-rendering="geometricPrecision" stroke-miterlimit="1.45" shape-rendering="geometricPrecision" transform="matrix(1,0,0,1,30,-92)" stroke-linecap="butt">
      <path fill="none" d="M214.3932 490.3585 L324.3932 520.3585 L214.3932 550.3585 L104.3932 520.3585 Z" clip-path="url(#clipPath2)"/>
      <text x="176.4684" xml:space="preserve" y="510.7609" clip-path="url(#clipPath2)" font-family="sans-serif" stroke="none">Есть занятые</text>
      <text x="124.8942" xml:space="preserve" y="524.8937" clip-path="url(#clipPath2)" font-family="sans-serif" stroke="none">потоки или запланированные</text>
      <text x="174.1598" xml:space="preserve" y="539.0265" clip-path="url(#clipPath2)" font-family="sans-serif" stroke="none">трассировки?</text>
    </g>
    <g text-rendering="geometricPrecision" stroke-miterlimit="1.45" shape-rendering="geometricPrecision" transform="matrix(1,0,0,1,30,-92)" stroke-linecap="butt">
      <rect x="243.6966" y="608.2874" clip-path="url(#clipPath2)" fill="none" width="200" rx="20" ry="20" height="40"/>
      <text x="325.1429" xml:space="preserve" y="632.8225" clip-path="url(#clipPath2)" font-family="sans-serif" stroke="none">Конец</text>
    </g>
    <g text-rendering="geometricPrecision" stroke-miterlimit="1.45" shape-rendering="geometricPrecision" transform="matrix(1,0,0,1,30,-92)" stroke-linecap="butt">
      <path fill="none" d="M133 230.3585 L563 230.3585 L563 250.3585 L133 250.3585 Z" clip-path="url(#clipPath2)"/>
    </g>
    <g text-rendering="geometricPrecision" stroke-miterlimit="1.45" shape-rendering="geometricPrecision" transform="matrix(1,0,0,1,30,-92)" stroke-linecap="butt">
      <path fill="none" d="M114.3932 565.647 L573 565.647 L573 585.647 L114.3932 585.647 Z" clip-path="url(#clipPath2)"/>
    </g>
    <g fill="url(#linearGradient1)" text-rendering="geometricPrecision" shape-rendering="geometricPrecision" transform="matrix(1,0,0,1,30,-92)" stroke="url(#linearGradient1)">
      <path d="M522.6229 220.3585 L602.6229 220.3585 L602.6229 260.3585 L522.6229 260.3585 Z" stroke="none" clip-path="url(#clipPath2)"/>
    </g>
    <g fill="url(#linearGradient2)" text-rendering="geometricPrecision" shape-rendering="geometricPrecision" transform="matrix(1,0,0,1,30,-92)" stroke="url(#linearGradient2)">
      <path d="M98.8393 216.5417 L178.8393 216.5417 L178.8393 256.5417 L98.8393 256.5417 Z" stroke="none" clip-path="url(#clipPath2)"/>
    </g>
    <g fill="url(#linearGradient3)" text-rendering="geometricPrecision" shape-rendering="geometricPrecision" transform="matrix(1,0,0,1,30,-92)" stroke="url(#linearGradient3)">
      <path d="M84.7926 555.647 L164.7926 555.647 L164.7926 595.647 L84.7926 595.647 Z" stroke="none" clip-path="url(#clipPath2)"/>
    </g>
    <g fill="url(#linearGradient4)" text-rendering="geometricPrecision" shape-rendering="geometricPrecision" transform="matrix(1,0,0,1,30,-92)" stroke="url(#linearGradient4)">
      <path d="M530.5186 555.647 L610.5186 555.647 L610.5186 595.647 L530.5186 595.647 Z" stroke="none" clip-path="url(#clipPath2)"/>
    </g>
    <g text-rendering="geometricPrecision" stroke-miterlimit="1.45" shape-rendering="geometricPrecision" transform="matrix(1,0,0,1,30,-92)" stroke-linecap="butt">
      <path fill="none" d="M-27.7105 360.3585 L87.7105 360.3585 L87.7105 400.3585 L-27.7105 400.3585 Z" clip-path="url(#clipPath2)"/>
      <text x="-2.1416" xml:space="preserve" y="370.7609" clip-path="url(#clipPath2)" font-family="sans-serif" stroke="none">Дождаться</text>
      <text x="-5.2969" xml:space="preserve" y="384.8937" clip-path="url(#clipPath2)" font-family="sans-serif" stroke="none">свободного</text>
      <text x="9.2197" xml:space="preserve" y="399.0265" clip-path="url(#clipPath2)" font-family="sans-serif" stroke="none">потока</text>
    </g>
    <g text-rendering="geometricPrecision" stroke-miterlimit="1.45" shape-rendering="geometricPrecision" transform="matrix(1,0,0,1,30,-92)" stroke-linecap="butt">
      <path fill="none" d="M513.5958 94.096 L499.1505 94.096 L499.1505 159.3789 L513.5958 159.3789" clip-path="url(#clipPath2)"/>
      <text x="505.1505" xml:space="preserve" y="110.0734" clip-path="url(#clipPath2)" font-family="sans-serif" stroke="none">Вход: параметры</text>
      <text x="505.1505" xml:space="preserve" y="124.2062" clip-path="url(#clipPath2)" font-family="sans-serif" stroke="none">системы; направления</text>
      <text x="505.1505" xml:space="preserve" y="138.339" clip-path="url(#clipPath2)" font-family="sans-serif" stroke="none">и интенсивности лучей;</text>
      <text x="505.1505" xml:space="preserve" y="152.4718" clip-path="url(#clipPath2)" font-family="sans-serif" stroke="none">пул потоков</text>
    </g>
    <g text-rendering="geometricPrecision" stroke-miterlimit="1.45" shape-rendering="geometricPrecision" transform="matrix(1,0,0,1,30,-92)" stroke-linecap="butt">
      <path fill="none" d="M509.4015 603.2874 L494.9562 603.2874 L494.9562 653.2874 L509.4015 653.2874" clip-path="url(#clipPath2)"/>
      <text x="500.9562" xml:space="preserve" y="618.6897" clip-path="url(#clipPath2)" font-family="sans-serif" stroke="none">Выход: распределение</text>
      <text x="500.9562" xml:space="preserve" y="632.8225" clip-path="url(#clipPath2)" font-family="sans-serif" stroke="none">поглощённой</text>
      <text x="500.9562" xml:space="preserve" y="646.9553" clip-path="url(#clipPath2)" font-family="sans-serif" stroke="none">интенсивности</text>
    </g>
    <g text-rendering="geometricPrecision" stroke-miterlimit="1.45" shape-rendering="geometricPrecision" transform="matrix(1,0,0,1,30,-92)" stroke-linecap="butt">
      <path fill="none" d="M248 176.7374 L448 176.7374 L448 216.7374 L248 216.7374 Z" clip-path="url(#clipPath2)"/>
      <text x="301.3506" xml:space="preserve" y="194.2062" clip-path="url(#clipPath2)" font-family="sans-serif" stroke="none">Создать список</text>
      <text x="254.7012" xml:space="preserve" y="208.339" clip-path="url(#clipPath2)" font-family="sans-serif" stroke="none">запланированных трассировок</text>
    </g>
    <g text-rendering="geometricPrecision" stroke-miterlimit="1.45" shape-rendering="geometricPrecision" transform="matrix(1,0,0,1,30,-92)" stroke-linecap="butt">
      <path fill="none" d="M214.3932 330.3536 L214.3932 360.3859" clip-path="url(#clipPath2)"/>
    </g>
    <g text-rendering="geometricPrecision" stroke-miterlimit="1.45" shape-rendering="geometricPrecision" transform="matrix(1,0,0,1,30,-92)" stroke-linecap="butt">
      <path fill="none" d="M214.3932 400.3536 L214.3932 430.3859" clip-path="url(#clipPath2)"/>
      <path fill="none" d="M492.6228 330.3536 L492.6228 360.3859" clip-path="url(#clipPath2)"/>
      <path fill="none" d="M492.6228 400.3536 L492.6228 430.3859" clip-path="url(#clipPath2)"/>
      <path fill="none" d="M492.6228 470.3536 L492.6228 490.3263" clip-path="url(#clipPath2)"/>
      <path fill="none" d="M602.6428 520.3585 L612.6979 520.3585 L612.6979 270.2383 L492.6228 270.2383 L492.6228 282.3834" clip-path="url(#clipPath2)"/>
      <path d="M492.6228 290.3834 L497.6228 278.3834 L492.6228 281.3834 L487.6228 278.3834 Z" clip-path="url(#clipPath2)" stroke="none"/>
      <text x="594.2375" xml:space="preserve" y="513.7891" clip-path="url(#clipPath2)" font-family="sans-serif" stroke="none">Да</text>
      <path fill="none" d="M214.3932 470.3536 L214.3932 490.3263" clip-path="url(#clipPath2)"/>
      <path fill="none" d="M214.3932 250.3728 L214.3932 290.3535" clip-path="url(#clipPath2)"/>
      <path fill="none" d="M492.6228 250.359 L492.6228 290.3489" clip-path="url(#clipPath2)"/>
      <path fill="none" d="M214.3932 550.3795 L214.3932 565.6633" clip-path="url(#clipPath2)"/>
      <path fill="none" d="M492.6228 550.3878 L492.6228 565.6458" clip-path="url(#clipPath2)"/>
      <path fill="none" d="M343.6966 585.6456 L343.6966 608.2574" clip-path="url(#clipPath2)"/>
      <path fill="none" d="M104.4146 520.3585 L30 520.3585 L30 408.3536" clip-path="url(#clipPath2)"/>
      <path d="M30 400.3536 L25 412.3536 L30 409.3536 L35 412.3536 Z" clip-path="url(#clipPath2)" stroke="none"/>
      <text x="89.6153" xml:space="preserve" y="515.8652" clip-path="url(#clipPath2)" font-family="sans-serif" stroke="none">Да</text>
      <path fill="none" d="M30 360.3399 L30 270 L214.3932 270 L214.3932 282.3763" clip-path="url(#clipPath2)"/>
      <path d="M214.3932 290.3763 L219.3932 278.3763 L214.3932 281.3763 L209.3932 278.3763 Z" clip-path="url(#clipPath2)" stroke="none"/>
      <path fill="none" stroke-dasharray="6,2" d="M448.0026 126.7374 L499.1429 126.7374" clip-path="url(#clipPath2)"/>
      <path fill="none" stroke-dasharray="6,2" d="M443.7003 628.2874 L494.9445 628.2874" clip-path="url(#clipPath2)"/>
      <path fill="none" d="M348 146.7326 L348 176.7648" clip-path="url(#clipPath2)"/>
      <path fill="none" d="M348 216.7162 L348 230.3383" clip-path="url(#clipPath2)"/>
    </g>
  </g>
</svg>
